<mxfile host="Electron" agent="Mozilla/5.0 (Windows NT 10.0; Win64; x64) AppleWebKit/537.36 (KHTML, like Gecko) draw.io/26.0.16 Chrome/132.0.6834.196 Electron/34.2.0 Safari/537.36" version="26.0.16">
  <diagram name="Page-1" id="TaMnGlr9pbOIGpODQGju">
    <mxGraphModel dx="1434" dy="884" grid="1" gridSize="10" guides="1" tooltips="1" connect="1" arrows="1" fold="1" page="1" pageScale="1" pageWidth="850" pageHeight="1100" math="0" shadow="0">
      <root>
        <mxCell id="0" />
        <mxCell id="1" parent="0" />
        <mxCell id="oIqqZ9csi47e3ND0LsDS-12" style="edgeStyle=orthogonalEdgeStyle;rounded=0;orthogonalLoop=1;jettySize=auto;html=1;entryX=0.5;entryY=0;entryDx=0;entryDy=0;fontSize=18;fillColor=#ffe6cc;strokeColor=default;" edge="1" parent="1" source="oIqqZ9csi47e3ND0LsDS-1" target="oIqqZ9csi47e3ND0LsDS-3">
          <mxGeometry relative="1" as="geometry" />
        </mxCell>
        <mxCell id="oIqqZ9csi47e3ND0LsDS-1" value="Start" style="strokeWidth=2;html=1;shape=mxgraph.flowchart.start_1;whiteSpace=wrap;fontSize=18;fillColor=#ffe6cc;strokeColor=#d79b00;fontStyle=1" vertex="1" parent="1">
          <mxGeometry x="490" y="50" width="100" height="60" as="geometry" />
        </mxCell>
        <mxCell id="oIqqZ9csi47e3ND0LsDS-13" style="edgeStyle=orthogonalEdgeStyle;rounded=0;orthogonalLoop=1;jettySize=auto;html=1;entryX=0.5;entryY=0;entryDx=0;entryDy=0;fontSize=18;fillColor=#ffe6cc;strokeColor=default;" edge="1" parent="1" source="oIqqZ9csi47e3ND0LsDS-3" target="oIqqZ9csi47e3ND0LsDS-4">
          <mxGeometry relative="1" as="geometry" />
        </mxCell>
        <mxCell id="oIqqZ9csi47e3ND0LsDS-3" value="input n" style="shape=parallelogram;html=1;strokeWidth=2;perimeter=parallelogramPerimeter;whiteSpace=wrap;rounded=1;arcSize=12;size=0.23;fontSize=18;fillColor=#ffe6cc;strokeColor=#d79b00;" vertex="1" parent="1">
          <mxGeometry x="450" y="160" width="180" height="60" as="geometry" />
        </mxCell>
        <mxCell id="oIqqZ9csi47e3ND0LsDS-4" value="let div = 2" style="rounded=1;whiteSpace=wrap;html=1;absoluteArcSize=1;arcSize=14;strokeWidth=2;fontSize=18;fillColor=#ffe6cc;strokeColor=#d79b00;fontStyle=1" vertex="1" parent="1">
          <mxGeometry x="460" y="270" width="160" height="100" as="geometry" />
        </mxCell>
        <mxCell id="oIqqZ9csi47e3ND0LsDS-17" style="edgeStyle=orthogonalEdgeStyle;rounded=0;orthogonalLoop=1;jettySize=auto;html=1;fontSize=18;fillColor=#ffe6cc;strokeColor=default;" edge="1" parent="1" source="oIqqZ9csi47e3ND0LsDS-5" target="oIqqZ9csi47e3ND0LsDS-7">
          <mxGeometry relative="1" as="geometry" />
        </mxCell>
        <mxCell id="oIqqZ9csi47e3ND0LsDS-24" style="edgeStyle=orthogonalEdgeStyle;rounded=0;orthogonalLoop=1;jettySize=auto;html=1;entryX=0.5;entryY=0;entryDx=0;entryDy=0;fontSize=18;fillColor=#ffe6cc;strokeColor=default;" edge="1" parent="1" source="oIqqZ9csi47e3ND0LsDS-5" target="oIqqZ9csi47e3ND0LsDS-8">
          <mxGeometry relative="1" as="geometry" />
        </mxCell>
        <mxCell id="oIqqZ9csi47e3ND0LsDS-5" value="is div &amp;lt;&amp;nbsp; n?" style="strokeWidth=2;html=1;shape=mxgraph.flowchart.decision;whiteSpace=wrap;fontSize=18;fillColor=#ffe6cc;strokeColor=#d79b00;fontStyle=1" vertex="1" parent="1">
          <mxGeometry x="460" y="420" width="160" height="100" as="geometry" />
        </mxCell>
        <mxCell id="oIqqZ9csi47e3ND0LsDS-6" value="div = div + 1" style="rounded=1;whiteSpace=wrap;html=1;absoluteArcSize=1;arcSize=14;strokeWidth=2;fontSize=18;fillColor=#ffe6cc;strokeColor=#d79b00;fontStyle=1" vertex="1" parent="1">
          <mxGeometry x="650" y="530" width="150" height="100" as="geometry" />
        </mxCell>
        <mxCell id="oIqqZ9csi47e3ND0LsDS-19" style="edgeStyle=orthogonalEdgeStyle;rounded=0;orthogonalLoop=1;jettySize=auto;html=1;entryX=0.5;entryY=0;entryDx=0;entryDy=0;fontSize=18;fillColor=#ffe6cc;strokeColor=default;" edge="1" parent="1" source="oIqqZ9csi47e3ND0LsDS-7" target="oIqqZ9csi47e3ND0LsDS-9">
          <mxGeometry relative="1" as="geometry" />
        </mxCell>
        <mxCell id="oIqqZ9csi47e3ND0LsDS-22" style="edgeStyle=orthogonalEdgeStyle;rounded=0;orthogonalLoop=1;jettySize=auto;html=1;entryX=0.5;entryY=1;entryDx=0;entryDy=0;fontSize=18;fillColor=#ffe6cc;strokeColor=default;" edge="1" parent="1" source="oIqqZ9csi47e3ND0LsDS-7" target="oIqqZ9csi47e3ND0LsDS-6">
          <mxGeometry relative="1" as="geometry" />
        </mxCell>
        <mxCell id="oIqqZ9csi47e3ND0LsDS-7" value="is n%div == 0?" style="strokeWidth=2;html=1;shape=mxgraph.flowchart.decision;whiteSpace=wrap;fontSize=18;fillColor=#ffe6cc;strokeColor=#d79b00;fontStyle=3" vertex="1" parent="1">
          <mxGeometry x="460" y="600" width="160" height="100" as="geometry" />
        </mxCell>
        <mxCell id="oIqqZ9csi47e3ND0LsDS-8" value="print prime" style="rounded=1;whiteSpace=wrap;html=1;absoluteArcSize=1;arcSize=14;strokeWidth=2;fontSize=18;fillColor=#ffe6cc;strokeColor=#d79b00;" vertex="1" parent="1">
          <mxGeometry x="270" y="630" width="150" height="100" as="geometry" />
        </mxCell>
        <mxCell id="oIqqZ9csi47e3ND0LsDS-9" value="print NOT prime" style="shape=parallelogram;html=1;strokeWidth=2;perimeter=parallelogramPerimeter;whiteSpace=wrap;rounded=1;arcSize=12;size=0.23;fontSize=18;fillColor=#ffe6cc;strokeColor=#d79b00;" vertex="1" parent="1">
          <mxGeometry x="440" y="780" width="200" height="60" as="geometry" />
        </mxCell>
        <mxCell id="oIqqZ9csi47e3ND0LsDS-10" value="Exit" style="strokeWidth=2;html=1;shape=mxgraph.flowchart.start_1;whiteSpace=wrap;fontSize=18;fillColor=#ffe6cc;strokeColor=#d79b00;fontStyle=1" vertex="1" parent="1">
          <mxGeometry x="490" y="920" width="100" height="60" as="geometry" />
        </mxCell>
        <mxCell id="oIqqZ9csi47e3ND0LsDS-15" style="edgeStyle=orthogonalEdgeStyle;rounded=0;orthogonalLoop=1;jettySize=auto;html=1;entryX=0.5;entryY=0;entryDx=0;entryDy=0;entryPerimeter=0;fontSize=18;fillColor=#ffe6cc;strokeColor=default;" edge="1" parent="1" source="oIqqZ9csi47e3ND0LsDS-4" target="oIqqZ9csi47e3ND0LsDS-5">
          <mxGeometry relative="1" as="geometry" />
        </mxCell>
        <mxCell id="oIqqZ9csi47e3ND0LsDS-21" style="edgeStyle=orthogonalEdgeStyle;rounded=0;orthogonalLoop=1;jettySize=auto;html=1;entryX=0.5;entryY=0;entryDx=0;entryDy=0;entryPerimeter=0;fontSize=18;fillColor=#ffe6cc;strokeColor=default;" edge="1" parent="1" source="oIqqZ9csi47e3ND0LsDS-9" target="oIqqZ9csi47e3ND0LsDS-10">
          <mxGeometry relative="1" as="geometry" />
        </mxCell>
        <mxCell id="oIqqZ9csi47e3ND0LsDS-26" value="" style="endArrow=none;html=1;rounded=0;" edge="1" parent="1">
          <mxGeometry width="50" height="50" relative="1" as="geometry">
            <mxPoint x="720" y="530" as="sourcePoint" />
            <mxPoint x="720" y="470" as="targetPoint" />
          </mxGeometry>
        </mxCell>
        <mxCell id="oIqqZ9csi47e3ND0LsDS-27" value="" style="endArrow=classic;html=1;rounded=0;entryX=1;entryY=0.5;entryDx=0;entryDy=0;entryPerimeter=0;" edge="1" parent="1" target="oIqqZ9csi47e3ND0LsDS-5">
          <mxGeometry width="50" height="50" relative="1" as="geometry">
            <mxPoint x="720" y="470" as="sourcePoint" />
            <mxPoint x="750" y="430" as="targetPoint" />
          </mxGeometry>
        </mxCell>
        <mxCell id="oIqqZ9csi47e3ND0LsDS-28" value="" style="endArrow=none;html=1;rounded=0;" edge="1" parent="1">
          <mxGeometry width="50" height="50" relative="1" as="geometry">
            <mxPoint x="340" y="950" as="sourcePoint" />
            <mxPoint x="340" y="730" as="targetPoint" />
          </mxGeometry>
        </mxCell>
        <mxCell id="oIqqZ9csi47e3ND0LsDS-29" value="" style="endArrow=classic;html=1;rounded=0;entryX=0;entryY=0.5;entryDx=0;entryDy=0;entryPerimeter=0;" edge="1" parent="1" target="oIqqZ9csi47e3ND0LsDS-10">
          <mxGeometry width="50" height="50" relative="1" as="geometry">
            <mxPoint x="340" y="950" as="sourcePoint" />
            <mxPoint x="390" y="900" as="targetPoint" />
          </mxGeometry>
        </mxCell>
        <mxCell id="oIqqZ9csi47e3ND0LsDS-30" value="Yes" style="text;html=1;align=center;verticalAlign=middle;resizable=0;points=[];autosize=1;strokeColor=none;fillColor=none;fontSize=18;fontStyle=1" vertex="1" parent="1">
          <mxGeometry x="475" y="533" width="50" height="40" as="geometry" />
        </mxCell>
        <mxCell id="oIqqZ9csi47e3ND0LsDS-31" value="Yes" style="text;html=1;align=center;verticalAlign=middle;resizable=0;points=[];autosize=1;strokeColor=none;fillColor=none;fontSize=18;fontStyle=1" vertex="1" parent="1">
          <mxGeometry x="475" y="710" width="50" height="40" as="geometry" />
        </mxCell>
        <mxCell id="oIqqZ9csi47e3ND0LsDS-32" value="No" style="text;html=1;align=center;verticalAlign=middle;resizable=0;points=[];autosize=1;strokeColor=none;fillColor=none;fontSize=18;fontStyle=1" vertex="1" parent="1">
          <mxGeometry x="640" y="660" width="50" height="40" as="geometry" />
        </mxCell>
        <mxCell id="oIqqZ9csi47e3ND0LsDS-33" value="No" style="text;html=1;align=center;verticalAlign=middle;resizable=0;points=[];autosize=1;strokeColor=none;fillColor=none;fontSize=18;fontStyle=1" vertex="1" parent="1">
          <mxGeometry x="380" y="430" width="50" height="40" as="geometry" />
        </mxCell>
        <mxCell id="oIqqZ9csi47e3ND0LsDS-34" value="Find if number is &lt;font style=&quot;color: rgb(51, 51, 255);&quot;&gt;prime&lt;/font&gt;" style="text;html=1;align=center;verticalAlign=middle;resizable=0;points=[];autosize=1;strokeColor=none;fillColor=none;fontSize=24;fontStyle=5" vertex="1" parent="1">
          <mxGeometry x="90" y="50" width="270" height="40" as="geometry" />
        </mxCell>
        <mxCell id="oIqqZ9csi47e3ND0LsDS-35" value="&lt;b&gt;&lt;font style=&quot;color: rgb(255, 181, 112);&quot;&gt;Input&lt;/font&gt;&lt;/b&gt;&lt;div&gt;&lt;br&gt;&lt;/div&gt;&lt;div&gt;number, n&lt;/div&gt;" style="text;html=1;align=left;verticalAlign=middle;resizable=0;points=[];autosize=1;strokeColor=none;fillColor=none;fontSize=22;" vertex="1" parent="1">
          <mxGeometry x="90" y="145" width="120" height="90" as="geometry" />
        </mxCell>
        <mxCell id="oIqqZ9csi47e3ND0LsDS-36" value="&lt;font color=&quot;#ffb570&quot;&gt;&lt;b&gt;Output&lt;/b&gt;&lt;/font&gt;&lt;br&gt;&lt;div&gt;&lt;br&gt;&lt;/div&gt;&lt;div&gt;prime or not prime&lt;/div&gt;" style="text;html=1;align=left;verticalAlign=middle;resizable=0;points=[];autosize=1;strokeColor=none;fillColor=none;fontSize=22;" vertex="1" parent="1">
          <mxGeometry x="90" y="765" width="200" height="90" as="geometry" />
        </mxCell>
      </root>
    </mxGraphModel>
  </diagram>
</mxfile>
